PathFileType	4	(X/Y/Z)	s02c0203.trc
DataRate	CameraRate	NumFrames	NumMarkers	Units	OrigDataRate	OrigDataStartFrame	OrigNumFrames
200	200	6	51	mm	200	250	2000
Frame#	Time	racr			lacr			c7			jug			rlel			rdr			llel			ldr			s2			lic			ric			lasi			rasi			rpsi			lpsi			rgt			lgt			rth1			rth2			rth3			rth4			rlfc			rmfc			rsh1			rsh2			rsh3			rsh4			rlmal			rmmal			rcal			rtoe			rmt5			rmt1			lth1			lth2			lth4			lth3			llfc			lmfc			lsh1			lsh2			lsh3			lsh4			llmal			lmmal			lcal			ltoe			lmt5			SBIKE			LBIKE			RBIKE			
		X1	Y1	Z1	X2	Y2	Z2	X3	Y3	Z3	X4	Y4	Z4	X5	Y5	Z5	X6	Y6	Z6	X7	Y7	Z7	X8	Y8	Z8	X9	Y9	Z9	X10	Y10	Z10	X11	Y11	Z11	X12	Y12	Z12	X13	Y13	Z13	X14	Y14	Z14	X15	Y15	Z15	X16	Y16	Z16	X17	Y17	Z17	X18	Y18	Z18	X19	Y19	Z19	X20	Y20	Z20	X21	Y21	Z21	X22	Y22	Z22	X23	Y23	Z23	X24	Y24	Z24	X25	Y25	Z25	X26	Y26	Z26	X27	Y27	Z27	X28	Y28	Z28	X29	Y29	Z29	X30	Y30	Z30	X31	Y31	Z31	X32	Y32	Z32	X33	Y33	Z33	X34	Y34	Z34	X35	Y35	Z35	X36	Y36	Z36	X37	Y37	Z37	X38	Y38	Z38	X39	Y39	Z39	X40	Y40	Z40	X41	Y41	Z41	X42	Y42	Z42	X43	Y43	Z43	X44	Y44	Z44	X45	Y45	Z45	X46	Y46	Z46	X47	Y47	Z47	X48	Y48	Z48	X49	Y49	Z49	X50	Y50	Z50	X51	Y51	Z51	
250	1.2500	471.499417	1285.580441	-127.457890	491.808046	1295.247359	-470.244958	493.420024	1312.544916	-304.262926	423.983926	1190.490368	-304.451140	539.239035	1031.475733	-58.778118	705.445841	891.493553	-127.192433	523.033383	1030.947363	-581.145906	696.982385	888.445654	-521.626048	-18.244649	1114.308862	-327.876350	0.000000	0.000000	-0.000000	105.315027	1110.986432	-178.919369	168.455339	1066.191914	-438.340127	157.263419	1092.386588	-214.622112	-0.888319	1139.728464	-292.039322	9.231054	1145.949918	-376.023758	88.531022	1037.717844	-136.977917	71.001536	1008.213203	-499.870687	178.090335	1027.420827	-141.570549	265.552176	1021.395555	-152.140843	339.395799	982.822288	-130.384903	273.882227	1044.939947	-181.076238	464.492255	898.089804	-167.327899	453.426890	877.696094	-277.866861	447.308162	787.425642	-148.019717	426.781115	702.421696	-163.780352	373.400127	634.690658	-154.523406	437.535936	697.409154	-202.744135	309.272433	533.169081	-154.456100	316.167056	550.687318	-236.538690	232.292322	484.846164	-193.214897	518.131347	471.104838	-196.330949	411.053718	458.988549	-134.557895	435.525282	470.112136	-244.966679	173.327462	909.676457	-516.833610	240.045654	853.405269	-514.897091	266.866097	872.186404	-496.464532	267.874821	768.591060	-513.713880	321.119367	682.755370	-489.317893	325.184270	652.992545	-385.986886	281.882195	586.828612	-509.417289	262.800059	503.925230	-492.780284	202.544526	436.859241	-495.128317	281.246620	497.992286	-456.828997	142.658311	352.283305	-477.853094	158.989934	342.138114	-402.310162	67.684262	346.951249	-435.541294	280.547437	153.949228	-443.340424	183.773637	203.918925	-502.663612	-129.575586	869.099856	-314.243956	32.440174	82.485662	-515.204606	32.441640	82.543521	-115.432983	
251	1.2550	473.169659	1283.700351	-127.199022	493.615457	1294.117867	-469.050565	494.509595	1310.662498	-303.481007	424.791311	1188.742912	-303.897807	538.207120	1029.478353	-56.928375	704.982479	891.492776	-127.039420	522.600656	1029.974544	-580.769985	697.217309	888.548686	-521.673042	-18.083605	1115.121627	-327.714806	0.000000	0.000000	-0.000000	105.365495	1111.094465	-178.855708	168.415861	1066.119180	-438.369323	157.216504	1092.372427	-214.653962	-0.657453	1140.302765	-292.092036	9.642357	1146.679045	-376.118990	88.445124	1037.830337	-137.016938	70.998409	1008.545210	-500.032645	178.017828	1027.171248	-141.563316	265.397206	1020.659583	-152.046821	338.994038	981.705978	-130.437544	273.848179	1044.398168	-180.953232	463.828297	896.583792	-167.657460	452.554148	876.270352	-278.099977	446.483809	785.882762	-148.341699	426.071750	701.053440	-163.982945	372.615948	633.199755	-154.880467	436.692868	695.908205	-203.034433	308.216827	531.749323	-154.728529	314.977278	549.216185	-236.864697	231.568932	482.716612	-193.346455	517.640711	471.819214	-196.280543	410.605734	458.747572	-134.547316	435.037983	470.082515	-244.965156	173.413652	909.881196	-516.687203	240.061168	853.651697	-514.798049	266.933274	872.492213	-496.580585	268.052720	768.940160	-514.026381	321.224551	683.131964	-489.364527	325.149500	653.360883	-386.059528	281.890428	587.254028	-509.496569	262.870284	504.334273	-492.917210	202.630760	437.264208	-495.188055	281.347290	498.458639	-456.974156	142.887230	352.515010	-478.009884	159.256563	342.410623	-402.411125	67.947572	347.311573	-435.624254	280.390160	153.830831	-443.370825	183.740927	203.969959	-502.648714	-129.571663	869.098730	-314.263455	32.448120	82.478686	-515.207862	32.436334	82.537352	-115.431642	
252	1.2600	474.899325	1281.755379	-126.932397	495.534019	1292.931717	-467.747239	495.671159	1308.738791	-302.623448	425.705881	1186.905073	-303.287554	537.340567	1027.548902	-55.182244	704.670214	891.365922	-126.724848	522.227465	1029.163279	-580.418751	697.330870	888.410949	-521.472069	-17.699621	1115.857868	-327.630809	0.000000	0.000000	-0.000000	105.445824	1111.195388	-178.843576	168.394043	1066.053104	-438.389822	157.189612	1092.328657	-214.678828	-0.137270	1141.058255	-292.267258	9.991439	1147.382290	-376.166900	88.342574	1037.966448	-137.127784	70.980159	1008.866454	-500.205305	177.975241	1026.930776	-141.546695	265.152755	1019.748923	-151.794664	338.484256	980.477886	-130.461774	273.825351	1043.678197	-180.921574	462.960906	894.858787	-167.978877	451.567491	874.748409	-278.429686	445.636596	784.264159	-148.525853	425.269092	699.466210	-164.095530	371.690385	631.638323	-155.210061	435.636129	694.374856	-203.506035	307.025712	530.296863	-155.031213	313.606860	547.631691	-237.177207	230.732256	480.406116	-193.486765	517.014824	472.709687	-196.185228	410.081202	458.470180	-134.462229	434.476213	470.068068	-244.990614	173.556529	910.187285	-516.862136	240.255766	854.073627	-514.989461	267.061613	872.866359	-496.628210	268.315271	769.369569	-514.300766	321.366148	683.504442	-489.390991	325.174842	653.738822	-386.129813	281.993842	587.820868	-509.551271	263.004635	504.866843	-492.975753	202.736526	437.862083	-495.223089	281.490612	499.074905	-457.066235	143.147021	352.822670	-478.147342	159.489689	342.640386	-402.502933	68.222039	347.706254	-435.660368	280.231883	153.687479	-443.374167	183.710571	204.083994	-502.689502	-129.581299	869.087838	-314.282967	32.435362	82.480068	-515.220694	32.431362	82.549720	-115.438459	
253	1.2650	476.593425	1279.673900	-126.574587	497.473701	1291.727887	-466.250600	496.824676	1306.775511	-301.800517	426.587312	1185.077042	-302.719521	536.647756	1025.578250	-53.634983	704.448398	891.057110	-126.102020	521.847207	1028.079845	-580.188354	697.249579	888.261689	-521.070843	-17.015105	1116.456448	-327.653546	0.000000	0.000000	-0.000000	105.517069	1111.337148	-178.838906	168.399804	1065.972548	-438.452036	157.178905	1092.290441	-214.743442	0.133461	1141.716730	-292.327156	10.425411	1148.159956	-376.236135	88.189986	1038.193824	-137.260168	71.016395	1009.232447	-500.392552	177.933397	1026.633998	-141.502227	264.926524	1018.843010	-151.830317	337.921625	979.272455	-130.325074	273.827478	1042.877111	-180.818277	462.177841	893.000398	-168.184157	450.598727	873.216255	-278.499699	444.678716	782.444838	-148.722447	423.153619	696.963170	-165.737831	370.696086	629.786767	-155.407701	434.630006	692.527673	-203.754184	305.834942	528.594116	-155.291690	312.301036	545.810886	-237.479453	229.950176	477.981831	-193.518396	516.343183	473.545342	-196.106752	409.510966	458.158252	-134.391793	433.910494	470.051400	-244.991266	173.734906	910.601408	-517.084650	240.527824	854.528766	-515.164180	267.223634	873.352247	-496.622011	268.619778	769.866896	-514.553328	321.583565	684.006751	-489.328699	325.169532	654.150039	-386.087175	282.146672	588.496412	-509.550320	263.176001	505.555439	-492.999919	202.883340	438.458115	-495.315289	281.592325	499.635672	-457.041554	143.403108	353.131993	-478.254930	159.687239	343.032684	-402.559247	68.503167	348.137170	-435.691115	280.098503	153.570069	-443.401167	183.696812	204.182622	-502.678290	-129.570824	869.072081	-314.300126	32.428063	82.467203	-515.201055	32.859601	82.321513	-115.294090	
254	1.2700	478.279205	1277.516114	-126.123217	499.566683	1290.447276	-464.690404	498.005580	1304.710758	-300.870760	427.524765	1183.274267	-302.057684	536.100046	1023.552358	-52.183404	704.276119	890.682917	-125.409307	521.363180	1027.125216	-580.018653	697.079864	888.195684	-520.478621	-15.952470	1116.856230	-327.812173	0.000000	0.000000	-0.000000	105.651476	1111.469156	-178.848316	168.442009	1065.900538	-438.466434	157.186911	1092.241116	-214.776251	-0.600134	1142.903938	-291.841029	10.921841	1149.027794	-376.405559	88.003246	1038.313274	-137.426363	71.137472	1009.474278	-500.740719	177.940656	1026.276653	-141.508139	264.794288	1017.955609	-151.934942	337.484550	977.921679	-130.333931	273.797816	1042.076511	-180.762893	461.211435	891.075759	-168.400829	449.539543	871.473225	-278.688716	443.725189	780.595940	-148.884061	422.105194	695.136566	-165.976710	369.588641	627.997429	-155.705585	432.900056	690.316632	-204.434726	304.590053	526.974644	-155.501594	310.993561	544.063074	-237.671260	229.094229	475.762780	-193.168487	515.696968	474.454196	-195.926803	409.055327	457.861424	-134.262556	433.293157	469.986087	-244.995977	173.931048	911.058911	-517.325060	240.889770	855.174252	-515.595767	267.416686	873.833703	-496.652356	268.989487	770.381750	-514.748889	321.834170	684.619688	-489.206801	325.231422	654.659296	-386.042133	282.302018	589.098310	-509.514706	263.388445	506.174769	-493.062665	203.074003	439.043398	-495.340885	281.749939	500.214890	-457.070061	143.633465	353.483018	-478.328813	159.892430	343.273690	-402.554132	68.810042	348.539870	-435.748041	279.964944	153.432066	-443.391566	183.667053	204.251465	-502.635142	-129.553166	869.068669	-314.338994	32.452467	82.465539	-515.214088	32.435069	82.529675	-115.435898	
255	1.2750	479.937972	1275.408604	-125.499461	501.679791	1289.042450	-462.980382	499.200283	1302.677171	-299.777145	428.471268	1181.389802	-301.256165	535.709834	1021.619265	-50.625311	704.028858	890.346115	-124.870621	520.835612	1025.908773	-579.940900	696.822348	888.203149	-520.158504	-14.434124	1116.996076	-328.135906	0.000000	0.000000	-0.000000	105.779804	1111.552653	-178.848125	168.514545	1065.849946	-438.489490	157.210382	1092.206631	-214.847698	0.865733	1143.192237	-292.670944	11.187841	1150.321083	-375.268025	87.863198	1038.371061	-137.658337	71.169877	1009.829054	-500.941914	177.964026	1025.826261	-141.549653	264.630105	1017.025096	-152.002558	337.056121	976.476793	-130.429379	273.837311	1041.239729	-180.729774	460.361474	889.126612	-168.455027	448.570122	869.572455	-278.793643	442.752490	778.672549	-149.009766	421.080547	693.247990	-166.123058	368.549628	626.090956	-155.837820	431.772949	688.605971	-204.668711	303.441838	525.148453	-155.654974	309.492675	542.292741	-237.855032	228.491954	473.153844	-193.202695	515.057643	475.289677	-195.779789	408.573422	457.332904	-134.189274	432.657975	469.969220	-244.970908	174.115182	911.478786	-517.545505	241.173018	855.663709	-515.760447	267.632392	874.337066	-496.675328	269.377978	770.893917	-514.841447	322.106177	685.205868	-489.008446	325.602873	655.472470	-386.700913	282.554806	589.725714	-509.329001	263.608761	506.784992	-492.932529	203.294179	439.701661	-495.301364	281.989174	500.814138	-457.021871	143.868777	353.873268	-478.385525	160.245800	343.520947	-402.593481	69.126969	349.015633	-435.804310	279.813373	153.335664	-443.363378	183.652364	204.418349	-502.609583	-129.521152	869.051478	-314.336323	32.456177	82.463075	-515.206047	32.431842	82.548520	-115.436814	
